<svg width="84" height="84" viewBox="0 0 84 84" fill="none" xmlns="http://www.w3.org/2000/svg">
<path d="M30 45C29.7161 45.001 29.4378 44.9214 29.1974 44.7705C28.957 44.6196 28.7643 44.4035 28.6418 44.1475C28.5193 43.8914 28.4719 43.6059 28.5052 43.324C28.5385 43.0421 28.6512 42.7754 28.83 42.555L43.68 27.255C43.7914 27.1264 43.9432 27.0395 44.1105 27.0086C44.2777 26.9777 44.4506 27.0045 44.6006 27.0848C44.7506 27.165 44.8689 27.2938 44.936 27.4502C45.0031 27.6065 45.0151 27.781 44.97 27.945L42.09 36.975C42.0051 37.2023 41.9765 37.4468 42.0069 37.6875C42.0372 37.9282 42.1255 38.158 42.2641 38.3571C42.4028 38.5563 42.5876 38.7188 42.8029 38.8307C43.0182 38.9427 43.2574 39.0008 43.5 39H54C54.2838 38.999 54.5621 39.0786 54.8026 39.2295C55.043 39.3804 55.2356 39.5965 55.3582 39.8525C55.4807 40.1086 55.528 40.3941 55.4947 40.676C55.4614 40.9579 55.3488 41.2246 55.17 41.445L40.32 56.745C40.2086 56.8736 40.0568 56.9605 39.8895 56.9914C39.7222 57.0223 39.5494 56.9955 39.3994 56.9152C39.2494 56.835 39.1311 56.7062 39.064 56.5498C38.9969 56.3935 38.9849 56.219 39.03 56.055L41.91 47.025C41.9949 46.7977 42.0234 46.5532 41.9931 46.3125C41.9628 46.0718 41.8745 45.842 41.7359 45.6429C41.5972 45.4437 41.4123 45.2812 41.1971 45.1693C40.9818 45.0573 40.7426 44.9992 40.5 45H30Z" stroke="#F7FF3C" stroke-width="3.75" stroke-linecap="round" stroke-linejoin="round"/>
<g filter="url(#filter0_f_13_3175)">
<rect width="36" height="36" transform="translate(24 24)" fill="#F7FF3C" fill-opacity="0.4"/>
</g>
<defs>
<filter id="filter0_f_13_3175" x="0" y="0" width="84" height="84" filterUnits="userSpaceOnUse" color-interpolation-filters="sRGB">
<feFlood flood-opacity="0" result="BackgroundImageFix"/>
<feBlend mode="normal" in="SourceGraphic" in2="BackgroundImageFix" result="shape"/>
<feGaussianBlur stdDeviation="12" result="effect1_foregroundBlur_13_3175"/>
</filter>
</defs>
</svg>
